<?xml version="1.0" standalone="no"?>
<!DOCTYPE svg PUBLIC "-//W3C//DTD SVG 20010904//EN"
 "http://www.w3.org/TR/2001/REC-SVG-20010904/DTD/svg10.dtd">
<svg version="1.0" xmlns="http://www.w3.org/2000/svg"
 width="350.000000pt" height="350.000000pt" viewBox="0 0 350.000000 350.000000"
 preserveAspectRatio="xMidYMid meet">

<g transform="translate(0.000000,350.000000) scale(0.100000,-0.100000)"
fill="#000000" stroke="none">
<path d="M1660 2576 c-124 -27 -238 -112 -283 -213 -33 -74 -78 -322 -79 -430
0 -61 5 -93 21 -128 12 -26 21 -51 21 -55 0 -4 -18 -15 -40 -24 -38 -15 -41
-15 -61 5 -34 34 -90 4 -108 -58 -7 -25 -4 -42 14 -82 13 -28 29 -51 34 -51 6
0 39 -29 75 -65 35 -36 69 -65 75 -65 6 0 1 -15 -10 -34 -11 -19 -19 -49 -18
-67 3 -39 -8 -79 -21 -79 -16 0 -204 -132 -248 -174 -73 -70 -84 -105 -83
-266 0 -97 -4 -153 -15 -187 -8 -26 -17 -96 -21 -155 -5 -96 -4 -108 11 -108
24 0 21 -5 -30 -52 -51 -47 -113 -132 -162 -220 -34 -62 -36 -68 -24 -68 5 0
24 28 42 63 41 78 107 172 155 217 l36 35 19 -25 c21 -27 26 -16 10 24 -9 25
-9 26 34 26 24 0 71 -3 106 -7 l62 -6 -6 -86 c-6 -72 -13 -98 -45 -163 -41
-83 -39 -106 3 -35 l26 42 0 -42 0 -43 508 0 508 0 38 70 c20 38 48 96 61 127
21 50 25 55 31 36 3 -13 12 -23 18 -23 19 0 76 -64 76 -85 0 -31 18 -89 35
-110 13 -18 13 -16 1 20 -7 22 -16 54 -19 71 l-6 32 50 -21 49 -21 24 24 c30
31 71 159 56 174 -7 7 -10 3 -10 -13 0 -26 -37 -119 -58 -143 -11 -13 -19 -15
-40 -7 -35 13 -122 69 -122 78 0 26 244 133 334 146 l49 7 -6 -74 c-3 -40 -9
-84 -13 -97 -4 -15 -3 -22 3 -18 5 3 15 -10 21 -29 12 -41 72 -144 84 -144 4
0 -16 43 -43 97 -44 83 -50 101 -43 132 13 66 21 176 14 186 -4 6 -10 30 -13
55 -3 25 -22 96 -41 158 -20 63 -36 126 -36 142 0 15 -11 68 -26 116 -35 124
-90 200 -169 234 -33 14 -44 26 -54 57 -10 30 -10 45 -2 61 21 39 13 91 -18
123 -16 16 -38 29 -50 29 -32 0 -49 26 -56 87 -4 32 -23 144 -42 248 -24 130
-37 240 -43 350 -6 125 -13 172 -29 216 -57 151 -173 251 -328 284 -80 17
-109 17 -183 1z m272 -48 c107 -51 185 -135 225 -242 10 -26 18 -97 23 -191 6
-138 32 -307 97 -645 27 -145 50 -123 -202 -202 -121 -39 -273 -87 -337 -107
l-117 -37 -43 22 c-24 12 -61 38 -83 58 l-40 35 44 1 c109 1 326 91 419 175
77 70 97 153 71 303 -10 57 -9 69 6 95 19 32 16 110 -5 145 -8 13 -9 0 -4 -51
l6 -67 -47 -43 c-36 -34 -46 -49 -43 -68 5 -23 5 -23 17 8 15 39 37 49 45 20
14 -49 18 -193 6 -237 -15 -58 -76 -115 -178 -168 -205 -107 -362 -121 -362
-32 0 27 38 70 72 83 7 2 10 8 6 12 -10 11 -72 -31 -87 -59 -13 -24 -12 -51 4
-88 6 -16 3 -17 -26 -12 -74 14 -100 77 -59 139 23 35 25 45 8 45 -7 0 -33 17
-56 38 l-44 37 114 0 c124 1 183 17 270 75 38 26 44 27 50 12 6 -14 7 -14 7 3
1 25 -17 45 -38 45 -13 0 -13 -2 -3 -9 31 -19 -117 -94 -219 -110 -105 -17
-202 8 -229 58 -8 15 -4 25 19 50 17 18 31 41 33 52 2 15 18 27 49 39 88 33
126 73 143 152 4 15 20 43 36 62 17 18 30 42 30 52 0 15 -5 12 -20 -11 -11
-16 -31 -45 -45 -64 -14 -19 -25 -44 -25 -57 0 -12 -12 -37 -27 -54 l-27 -32
-17 21 c-30 37 -53 191 -30 205 4 3 16 -3 26 -14 12 -14 31 -20 58 -20 33 0
46 6 73 36 22 23 34 45 33 62 l0 27 -10 -24 c-9 -22 -13 -23 -64 -17 -41 5
-63 2 -85 -9 -38 -20 -38 -22 -5 153 30 161 49 207 113 271 88 88 180 122 314
117 75 -3 98 -8 160 -38z m-498 -528 c30 15 45 7 27 -14 -20 -24 -69 -30 -97
-11 -32 21 -22 36 15 22 23 -8 36 -8 55 3z"/>
<path d="M1523 2250 c-34 -14 -28 -20 8 -10 19 6 48 6 73 0 37 -8 39 -7 22 6
-22 16 -69 17 -103 4z"/>
<path d="M1501 2204 c-34 -14 -35 -15 -15 -34 32 -33 74 -35 116 -7 20 14 39
23 42 19 3 -3 6 -1 6 5 0 14 -54 33 -89 33 -14 -1 -41 -7 -60 -16z m104 -23
c-32 -31 -67 -35 -96 -12 l-24 21 46 -6 c30 -4 49 -2 53 5 4 6 15 11 24 11 14
0 14 -3 -3 -19z"/>
<path d="M1654 2105 c-23 -17 -19 -18 25 -5 27 8 43 6 79 -10 57 -26 67 -18
13 9 -47 25 -90 27 -117 6z"/>
<path d="M1359 2080 c-29 -23 -23 -25 22 -6 19 8 47 12 63 9 20 -4 27 -2 22 6
-12 18 -81 13 -107 -9z"/>
<path d="M1577 2072 c-13 -20 1 -48 43 -86 32 -29 48 -36 81 -36 45 0 85 18
112 49 17 21 16 22 -9 31 -35 14 -127 13 -158 -1 -30 -14 -53 0 -58 34 -2 16
-5 18 -11 9z m212 -51 c21 -14 -2 -38 -48 -52 -30 -9 -44 -8 -74 5 -40 16 -53
43 -14 31 58 -18 85 -17 99 4 14 24 17 24 37 12z"/>
<path d="M1328 1938 c16 -20 67 -33 84 -21 9 5 1 10 -22 14 -19 3 -44 10 -55
15 -18 7 -18 6 -7 -8z"/>
<path d="M1644 1914 c33 -18 119 -15 139 5 9 10 5 11 -18 4 -37 -10 -81 -10
-120 0 l-30 7 29 -16z"/>
<path d="M1572 1875 c0 -16 2 -22 5 -12 2 9 2 23 0 30 -3 6 -5 -1 -5 -18z"/>
</g>
</svg>
