<?xml version="1.0" standalone="no"?>
<!DOCTYPE svg PUBLIC "-//W3C//DTD SVG 20010904//EN"
 "http://www.w3.org/TR/2001/REC-SVG-20010904/DTD/svg10.dtd">
<svg version="1.0" xmlns="http://www.w3.org/2000/svg"
 viewBox="0 0 2600.000000 2600.000000"
 preserveAspectRatio="xMidYMid meet">
<metadata>
Created by potrace 1.15, written by Peter Selinger 2001-2017
</metadata>
<g transform="translate(0.000000,2600.000000) scale(0.100000,-0.100000)"
fill="#000000" stroke="none">
<path d="M15375 20155 c-3564 -585 -6706 -1100 -6983 -1146 -276 -45 -500 -84
-498 -86 7 -7 3907 -943 3930 -943 24 0 11222 1877 11244 1885 15 5 16 183 2
294 -72 549 -502 980 -1050 1051 -41 5 -95 9 -120 9 -25 -1 -2961 -479 -6525
-1064z"/>
<path d="M17793 18696 c-2889 -486 -5255 -885 -5257 -887 -6 -6 1882 -460
1910 -459 11 0 1940 288 4285 640 2345 353 4283 644 4307 647 l42 6 0 468 c0
440 -1 469 -17 468 -10 0 -2382 -398 -5270 -883z"/>
<path d="M7150 18605 c-415 -84 -735 -427 -790 -846 -7 -59 -10 -669 -8 -2009
l3 -1925 180 -7 c795 -30 1455 -122 1748 -244 199 -83 331 -218 366 -376 6
-27 10 -332 10 -786 1 -621 -2 -750 -14 -785 -13 -37 -12 -49 0 -91 12 -39 15
-116 15 -362 0 -249 -3 -322 -15 -357 -13 -37 -13 -49 0 -91 21 -70 21 -662 0
-721 -8 -21 -12 -41 -10 -43 2 -2 32 7 67 21 388 155 1263 247 2353 247 1170
0 2050 -103 2411 -281 180 -88 287 -214 314 -369 7 -40 9 -659 2 -825 0 -5 2
-158 5 -338 4 -286 2 -336 -12 -381 -15 -49 -15 -57 -1 -106 23 -79 23 -637 0
-706 -14 -43 -14 -52 0 -104 12 -43 16 -104 16 -263 0 -113 4 -208 8 -211 4
-2 1826 -442 4047 -976 l4040 -972 85 5 c47 3 125 18 175 32 360 105 619 387
703 765 16 70 17 390 17 4425 l0 4350 -28 100 c-30 112 -86 235 -146 323 -167
247 -453 410 -751 428 -99 6 -355 68 -11298 2700 -3535 850 -3348 808 -3492
779z"/>
<path d="M19113 17767 c-2163 -325 -3929 -594 -3925 -598 4 -3 1517 -369 3362
-812 2530 -608 3377 -807 3444 -812 257 -20 525 -125 742 -291 109 -83 259
-246 331 -360 9 -15 12 371 12 1724 1 1653 0 1742 -16 1741 -10 0 -1787 -267
-3950 -592z"/>
<path d="M5555 13439 c-1006 -20 -1829 -143 -1971 -296 -31 -33 -30 -54 2 -92
83 -99 464 -188 1054 -246 647 -63 1602 -71 2310 -20 799 59 1323 181 1323
308 0 159 -672 293 -1683 337 -321 14 -632 16 -1035 9z m1025 -155 c118 -15
246 -44 313 -69 28 -11 84 -15 220 -15 139 -1 188 -4 207 -15 22 -13 8 -14
-144 -15 l-168 0 59 -40 c70 -46 102 -95 84 -128 -27 -51 -171 -89 -291 -77
-117 13 -260 68 -260 101 0 21 31 30 161 49 124 18 179 36 179 58 0 39 -12 40
-514 35 l-483 -6 -47 -36 c-94 -72 -247 -128 -436 -160 -223 -38 -622 -40
-754 -5 -128 34 -148 91 -55 159 l42 30 -154 0 c-144 1 -152 2 -120 15 24 11
74 15 185 15 143 0 157 2 232 29 151 55 364 91 459 77 81 -13 37 -26 -151 -47
-166 -18 -284 -41 -284 -56 0 -3 179 -4 398 -1 l398 6 63 32 c35 17 99 41 142
52 153 38 469 43 719 12z"/>
<path d="M6215 13259 c-105 -7 -215 -35 -230 -60 -4 -5 158 -9 419 -9 234 0
427 4 430 9 3 5 -22 16 -57 24 -129 33 -378 49 -562 36z"/>
<path d="M4795 13151 c-21 -4 -31 -13 -33 -29 -5 -33 47 -51 186 -64 208 -20
474 14 606 76 l51 24 -390 0 c-214 0 -403 -3 -420 -7z"/>
<path d="M3560 12681 l0 -282 55 -24 c129 -58 446 -135 735 -179 397 -61 751
-86 1340 -93 1257 -15 2229 106 2530 316 l55 38 3 253 c2 237 1 252 -15 247
-10 -3 -54 -21 -98 -41 -452 -200 -2022 -295 -3320 -201 -542 40 -983 115
-1180 201 -44 19 -86 38 -92 41 -10 4 -13 -55 -13 -276z"/>
<path d="M3560 11956 l0 -284 48 -20 c173 -75 555 -160 922 -206 977 -123
2487 -86 3227 80 226 50 407 119 486 184 l37 31 0 250 c0 137 -2 249 -5 249
-3 0 -32 -13 -64 -29 -156 -79 -462 -144 -896 -191 -1368 -146 -3303 -41
-3713 200 -18 11 -35 20 -38 20 -2 0 -4 -128 -4 -284z"/>
<path d="M3560 11147 l0 -285 48 -20 c172 -73 500 -149 853 -196 429 -58 802
-79 1399 -79 1234 0 2130 125 2383 334 l37 30 0 250 c0 137 -2 249 -5 249 -3
0 -31 -13 -63 -29 -558 -282 -3044 -350 -4207 -116 -194 39 -308 76 -437 143
-5 2 -8 -124 -8 -281z"/>
<path d="M3560 10336 l0 -285 79 -30 c252 -97 695 -182 1181 -225 330 -30 574
-39 1040 -39 1234 0 2130 125 2383 334 l37 30 0 251 c0 196 -3 249 -12 245 -7
-3 -49 -22 -93 -41 -566 -249 -2669 -324 -3935 -140 -292 42 -523 101 -629
160 -24 13 -45 24 -47 24 -2 0 -4 -128 -4 -284z"/>
<path d="M10515 9840 c-660 -25 -1207 -87 -1524 -171 -407 -108 -400 -238 18
-344 857 -217 2968 -230 3956 -25 358 75 499 163 408 255 -126 125 -717 230
-1563 275 -260 14 -1033 20 -1295 10z m1215 -155 c110 -17 226 -44 299 -70 32
-11 88 -15 220 -16 97 0 185 -4 196 -9 13 -6 -9 -9 -66 -9 -47 -1 -120 -4
-162 -7 l-76 -7 45 -29 c162 -102 111 -196 -112 -206 -119 -5 -222 14 -299 56
-88 48 -65 64 141 95 106 17 154 33 154 52 0 34 -18 35 -507 35 l-482 0 -74
-50 c-178 -121 -384 -168 -777 -177 -296 -7 -428 10 -485 63 -42 38 -29 72 50
132 l30 23 -158 -3 c-131 -3 -154 -1 -130 9 17 8 85 12 181 13 149 0 157 1
256 35 139 47 281 75 387 75 80 0 114 -9 90 -24 -5 -4 -78 -13 -163 -21 -153
-16 -285 -40 -302 -55 -5 -5 171 -7 390 -4 l399 5 75 34 c91 42 174 64 283 75
119 13 474 3 597 -15z"/>
<path d="M11330 9664 c-115 -14 -244 -54 -227 -71 3 -3 203 -2 444 3 391 7
433 9 393 21 -91 27 -229 44 -400 47 -96 3 -191 2 -210 0z"/>
<path d="M9894 9539 c-19 -21 -18 -21 4 -39 38 -31 149 -43 361 -37 167 4 210
8 292 30 53 14 114 34 135 46 l39 20 -406 1 c-400 0 -406 0 -425 -21z"/>
<path d="M3560 9527 l0 -286 78 -29 c217 -84 588 -162 982 -206 942 -107 2357
-70 3090 80 244 50 454 128 538 199 l32 27 0 250 c0 196 -3 249 -12 245 -7 -3
-49 -22 -94 -41 -671 -296 -3425 -327 -4381 -50 -67 19 -151 53 -225 92 -5 2
-8 -125 -8 -281z"/>
<path d="M8692 9082 l3 -287 90 -34 c646 -240 2129 -329 3440 -205 571 54 998
160 1148 284 l37 31 0 128 c0 70 -3 182 -6 248 l-7 120 -81 -38 c-299 -139
-1058 -230 -2066 -246 -1116 -17 -2161 88 -2492 252 l-68 33 2 -286z"/>
<path d="M3560 8717 l0 -285 63 -25 c192 -77 563 -159 917 -202 406 -49 768
-68 1320 -68 691 0 1223 35 1680 108 339 55 602 141 708 230 l32 27 0 249 c0
137 -2 249 -4 249 -2 0 -37 -16 -78 -35 -605 -279 -3078 -341 -4212 -105 -199
42 -279 68 -418 138 -5 2 -8 -124 -8 -281z"/>
<path d="M8690 8357 c0 -262 1 -285 18 -292 341 -139 931 -238 1640 -275 410
-21 1212 -11 1637 20 721 53 1246 170 1394 311 l34 33 -6 239 c-4 132 -8 242
-11 244 -2 2 -30 -9 -62 -25 -233 -117 -825 -206 -1619 -242 -285 -13 -1079
-13 -1355 0 -681 32 -1222 103 -1495 196 -40 13 -121 48 -167 72 -5 2 -8 -124
-8 -281z"/>
<path d="M3560 7906 l0 -284 78 -30 c332 -127 884 -215 1567 -253 272 -15
1037 -15 1325 0 918 47 1523 162 1718 326 l32 27 0 250 c0 196 -3 249 -12 245
-7 -3 -49 -22 -93 -41 -487 -215 -2178 -307 -3495 -190 -531 46 -952 132
-1087 220 -12 8 -25 14 -28 14 -3 0 -5 -128 -5 -284z"/>
<path d="M8690 7546 l0 -285 56 -21 c314 -117 761 -198 1364 -246 268 -21
1135 -30 1481 -15 678 30 1159 91 1479 188 133 40 261 100 308 143 l32 31 0
123 c0 195 -11 368 -24 362 -145 -64 -194 -82 -289 -106 -435 -110 -1162 -170
-2062 -170 -1027 0 -1821 79 -2207 220 -45 16 -92 37 -104 45 -13 8 -26 15
-29 15 -3 0 -5 -128 -5 -284z"/>
<path d="M3560 7096 l0 -284 68 -26 c514 -195 1484 -294 2592 -265 775 20
1336 82 1706 189 122 35 272 102 322 144 l32 28 0 249 c0 137 -4 249 -9 249
-5 0 -28 -11 -52 -25 -400 -223 -2179 -328 -3539 -209 -339 29 -656 78 -846
129 -93 25 -231 78 -248 95 -6 6 -14 10 -18 10 -4 0 -8 -128 -8 -284z"/>
<path d="M13345 6998 c-222 -120 -823 -211 -1650 -248 -284 -13 -1038 -13
-1320 0 -374 17 -727 48 -995 86 -269 39 -559 112 -648 165 -18 10 -35 19 -38
19 -2 0 -4 -128 -4 -284 l0 -284 88 -32 c320 -116 768 -193 1397 -241 222 -17
1124 -23 1415 -10 906 41 1521 147 1744 301 79 54 76 45 75 213 -1 84 -4 195
-8 247 l-6 95 -50 -27z"/>
<path d="M3560 6286 l0 -285 53 -19 c380 -140 900 -226 1595 -262 260 -14
1033 -14 1307 0 855 41 1400 134 1664 281 109 61 101 37 101 321 0 136 -3 248
-6 248 -3 0 -39 -16 -79 -35 -357 -169 -1428 -268 -2635 -244 -757 16 -1405
82 -1745 180 -87 25 -223 78 -231 90 -20 33 -24 -16 -24 -275z"/>
<path d="M13376 6205 c-37 -28 -168 -76 -284 -105 -630 -158 -2019 -217 -3132
-134 -584 43 -1013 120 -1202 215 -32 16 -60 29 -63 29 -3 0 -5 -128 -5 -284
l0 -284 88 -32 c327 -118 778 -195 1427 -242 282 -20 1362 -17 1675 5 762 55
1234 146 1444 281 90 58 86 47 85 224 -1 86 -4 198 -8 249 -6 88 -7 91 -25 78z"/>
</g>
</svg>
